<svg xmlns="http://www.w3.org/2000/svg" width="280" height="190" viewBox="0 0 280 190" fill="none"><defs><linearGradient id="b" x1="75" y1="16" x2="202" y2="168" gradientUnits="userSpaceOnUse"><stop stop-color="#65B3FF"/><stop offset="1" stop-color="#2E72EE"/></linearGradient><filter id="s" x="36" y="4" width="220" height="185" filterUnits="userSpaceOnUse"><feDropShadow dy="9" stdDeviation="8" flood-color="#3279D9" flood-opacity=".16"/></filter></defs><g opacity=".55" stroke="#65C9AC" stroke-width="4" stroke-linecap="round"><path d="M48 152c-8-37-2-69 19-95M52 132 27 99M55 111l28-28M224 150c8-34 4-63-14-87M220 130l25-28M217 108l-24-24"/><ellipse cx="30" cy="96" rx="8" ry="15" transform="rotate(-43 30 96)" fill="#A8E4D2" stroke="none"/><ellipse cx="84" cy="81" rx="8" ry="15" transform="rotate(40 84 81)" fill="#A8E4D2" stroke="none"/></g><g filter="url(#s)"><rect x="74" y="21" width="132" height="144" rx="17" fill="white" stroke="#69AFFF" stroke-width="7"/><rect x="118" y="13" width="45" height="15" rx="5" fill="#347DF2"/><circle cx="112" cy="68" r="17" fill="url(#b)"/><path d="M84 110c3-22 13-32 28-32s25 10 28 32" fill="url(#b)"/><rect x="150" y="58" width="38" height="7" rx="3.5" fill="#C6DDF7"/><rect x="150" y="75" width="31" height="7" rx="3.5" fill="#D8E8F8"/><rect x="150" y="92" width="37" height="7" rx="3.5" fill="#D8E8F8"/><path d="M196 87 241 103v31c0 28-17 44-45 53-28-9-45-25-45-53v-31l45-16Z" fill="url(#b)"/><path d="M196 112v39M177 132h38" stroke="white" stroke-width="10" stroke-linecap="round"/></g></svg>
