<svg xmlns="http://www.w3.org/2000/svg" width="170" height="130" viewBox="0 0 170 130" fill="none"><defs><linearGradient id="a" x1="40" y1="12" x2="132" y2="119" gradientUnits="userSpaceOnUse"><stop stop-color="#72BCFF"/><stop offset="1" stop-color="#3477EF"/></linearGradient></defs><path d="M25 111c-8-28-4-52 14-72M29 93 12 72M31 73l17-17M145 111c5-25 1-45-12-61M141 90l16-18" stroke="#B3E4D6" stroke-width="3" stroke-linecap="round"/><rect x="46" y="17" width="79" height="96" rx="12" fill="white" stroke="#A9D1FA" stroke-width="4" transform="rotate(4 46 17)"/><rect x="64" y="38" width="42" height="6" rx="3" fill="#A9CEF6"/><path d="m62 58 5 5 9-11M62 78l5 5 9-11M62 98l5 5 9-11" stroke="#3C86F5" stroke-width="5" stroke-linecap="round" stroke-linejoin="round"/><rect x="82" y="56" width="30" height="5" rx="2.5" fill="#D3E5F8"/><rect x="82" y="76" width="30" height="5" rx="2.5" fill="#D3E5F8"/><rect x="82" y="96" width="23" height="5" rx="2.5" fill="#D3E5F8"/><path d="M126 77 151 86v18c0 15-10 24-25 29-16-5-25-14-25-29V86l25-9Z" fill="url(#a)"/><path d="m116 103 7 7 13-17" stroke="white" stroke-width="5" stroke-linecap="round" stroke-linejoin="round"/></svg>
