<svg width="250" height="185" viewBox="0 0 250 185" fill="none" xmlns="http://www.w3.org/2000/svg">
  <defs>
    <linearGradient id="paper" x1="75" y1="24" x2="143" y2="138" gradientUnits="userSpaceOnUse">
      <stop stop-color="#FFFFFF"/>
      <stop offset="1" stop-color="#DDEEFF"/>
    </linearGradient>
    <linearGradient id="wallet" x1="135" y1="73" x2="222" y2="156" gradientUnits="userSpaceOnUse">
      <stop stop-color="#8FCAFF"/>
      <stop offset="1" stop-color="#4F95FF"/>
    </linearGradient>
    <filter id="s" x="40" y="12" width="197" height="160" filterUnits="userSpaceOnUse" color-interpolation-filters="sRGB">
      <feDropShadow dx="0" dy="16" stdDeviation="14" flood-color="#1E63D9" flood-opacity=".22"/>
    </filter>
  </defs>
  <circle cx="165" cy="68" r="47" fill="#96C9FF" opacity=".28"/>
  <path d="M43 139c22-3 23-35 48-34 20 1 23 22 42 18 18-4 19-27 42-28 22-1 33 18 48 35" stroke="#BFE1FF" stroke-width="10" stroke-linecap="round" opacity=".45"/>
  <g filter="url(#s)">
    <path d="M82 31c2-8 10-13 18-11l58 14c8 2 13 10 11 18l-25 100-88-22L82 31z" fill="url(#paper)"/>
    <path d="M110 61h42M104 84h36M99 106h48" stroke="#9EC8FF" stroke-width="7" stroke-linecap="round"/>
    <path d="M124 49l-22 51m5-37 23 5m-35 16 23 5" stroke="#5C9EFF" stroke-width="7" stroke-linecap="round" stroke-linejoin="round"/>
    <rect x="129" y="77" width="94" height="72" rx="13" fill="url(#wallet)"/>
    <path d="M129 91h86c7 0 13 6 13 13v6h-43c-11 0-20 9-20 20s9 20 20 20h-43c-7 0-13-6-13-13V91z" fill="#6EAEFF"/>
    <rect x="172" y="115" width="59" height="31" rx="15.5" fill="#3E83F1"/>
    <circle cx="187" cy="130" r="6" fill="#DCEBFF"/>
  </g>
  <circle cx="54" cy="126" r="9" fill="#CBE4FF" opacity=".7"/>
  <circle cx="204" cy="43" r="5" fill="#D8EAFF" opacity=".8"/>
</svg>
