<svg width="48" height="48" viewBox="0 0 48 48" fill="none" xmlns="http://www.w3.org/2000/svg">
  <path d="M17.7 14.4 33.6 30.3" stroke="white" stroke-width="5" stroke-linecap="round"/>
  <path d="M14.8 20.5c-3.2 1.5-7-.8-7.5-4.4-.5-3.4 2.3-6.3 5.7-6 1.1-3.3 4.9-4.9 7.9-3.2 3.2 1.8 3.8 6.1 1.3 8.8l-6.4 6.4" stroke="white" stroke-width="4" stroke-linecap="round" stroke-linejoin="round"/>
  <path d="M33.2 27.5c3.2-1.5 7 .8 7.5 4.4.5 3.4-2.3 6.3-5.7 6-1.1 3.3-4.9 4.9-7.9 3.2-3.2-1.8-3.8-6.1-1.3-8.8l6.4-6.4" stroke="white" stroke-width="4" stroke-linecap="round" stroke-linejoin="round"/>
</svg>
