<svg xmlns="http://www.w3.org/2000/svg" width="300" height="190" viewBox="0 0 300 190" fill="none"><defs><linearGradient id="f" x1="86" y1="38" x2="214" y2="174" gradientUnits="userSpaceOnUse"><stop stop-color="#65B4FF"/><stop offset="1" stop-color="#2B73EE"/></linearGradient><linearGradient id="p" x1="168" y1="8" x2="241" y2="116" gradientUnits="userSpaceOnUse"><stop stop-color="#FFF"/><stop offset="1" stop-color="#DCEEFF"/></linearGradient><filter id="s" x="50" y="10" width="220" height="180" filterUnits="userSpaceOnUse"><feDropShadow dx="0" dy="10" stdDeviation="10" flood-color="#3379D8" flood-opacity=".16"/></filter></defs><g filter="url(#s)"><rect x="151" y="17" width="91" height="121" rx="12" transform="rotate(8 151 17)" fill="url(#p)"/><rect x="169" y="41" width="49" height="6" rx="3" transform="rotate(8 169 41)" fill="#9CC9F8"/><rect x="166" y="56" width="58" height="5" rx="2.5" transform="rotate(8 166 56)" fill="#C4DDF7"/><rect x="164" y="69" width="48" height="5" rx="2.5" transform="rotate(8 164 69)" fill="#C4DDF7"/><path d="M74 62c0-8 6-14 14-14h42l12 15h72c8 0 14 6 14 14v82c0 8-6 14-14 14H88c-8 0-14-6-14-14V62Z" fill="url(#f)"/><path d="M74 86h154v73c0 8-6 14-14 14H88c-8 0-14-6-14-14V86Z" fill="#3F87F4"/><path d="M151 101v43M130 122h43" stroke="#FFF" stroke-width="12" stroke-linecap="round"/></g><path d="M55 118c-18-15-26-35-22-56 21 9 32 26 31 49M55 118c11-22 25-35 43-39-1 21-12 37-34 48" stroke="#46C6A4" stroke-width="5" stroke-linecap="round"/><circle cx="42" cy="75" r="7" fill="#6DD7B9"/><circle cx="84" cy="91" r="7" fill="#6DD7B9"/></svg>
